# xmcd
#
# Track frame offsets:
#	150
#	17619
#	28131
#	47503
#	65941
#	79908
#	94684
#	112379
#	137451
#	154317
#	174919
#	190345
#	205072
#	220621
#	242558
#	262493
#	277664
#	293310
#	303443
#	318601
#
# Disc length: 4476 seconds
#
# Revision: 2
# Processed by: cddbd v1.5.2PL0 Copyright (c) Steve Scherf et al.
# Submitted via: dBpowerAMP V4.0
#
DISCID=20117a14
DTITLE=Various Artist - Hott Urban Volume 35 Canada
DYEAR=2018
DGENRE=Urban
TTITLE0=DJ Khaled ft. Jay-Z, Future and Beyonce - Top Off
TTITLE1=Gucci Mane ft. Migos and Lil Yachty - Solitaire
TTITLE2=Ella Mai - Boo'd Up
TTITLE3=Devvon Terrell - Temperature
TTITLE4=Busta Rhymes ft. Missy Elliott and Kelly Rowland - Get It
TTITLE5=Janelle Monae - Make Me Feel
TTITLE6=2 Chainz ft. YG and Offset - Proud
TTITLE7=Rae Sremmurd - Powerglide
TTITLE8=Jeremih - Forever I'm Ready
TTITLE9=Roy Woods - Monday To Monday
TTITLE10=Logic and Marshmello - Everyday
TTITLE11=Lil Xan ft. Yo Gotti and Rich The Kid - Betrayed [Remix]
TTITLE12=Post Malone ft. TY Dolla $ign - Psycho
TTITLE13=Toni Braxton - Long As I Live
TTITLE14=Lil Skies - Red Roses
TTITLE15=Tyga - Temperature
TTITLE16=A.Chal - Love N Hennessy
TTITLE17=Bazzi - Mine
TTITLE18=Khalid and Normani - Love Lies
TTITLE19=YFN Lucci ft. Meek Mill - Street Kings
EXTD=
EXTT0=
EXTT1=
EXTT2=
EXTT3=
EXTT4=
EXTT5=
EXTT6=
EXTT7=
EXTT8=
EXTT9=
EXTT10=
EXTT11=
EXTT12=
EXTT13=
EXTT14=
EXTT15=
EXTT16=
EXTT17=
EXTT18=
EXTT19=
PLAYORDER=
